<?xml version="1.0" standalone="no"?><!DOCTYPE svg PUBLIC "-//W3C//DTD SVG 1.1//EN" "http://www.w3.org/Graphics/SVG/1.1/DTD/svg11.dtd"><svg t="1780034702495" class="icon" viewBox="0 0 1035 1024" version="1.1" xmlns="http://www.w3.org/2000/svg" p-id="6205" xmlns:xlink="http://www.w3.org/1999/xlink" width="202.1484375" height="200"><path d="M426.365349 469.163574l36.613836 36.408229-36.613836 36.392413H168.660883v121.292227l-157.162715-157.68464 157.162715-155.043383v118.635154z" fill="#932279" p-id="6206"></path><path d="M543.070962 426.381533l-36.408229 36.613835-36.392413-36.613835V168.677066h-121.292227l157.68464-157.17853 155.043383 157.17853h-118.635154z" fill="#EFA724" p-id="6207"></path><path d="M585.853003 543.087145l-36.613836-36.408229 36.613836-36.392412h257.704466v-121.292228l157.162715 157.68464-157.162715 155.043383v-118.635154z" fill="#262577" p-id="6208"></path><path d="M469.14739 585.869187l36.392413-36.613836 36.408229 36.613836v257.704466h121.292227l-157.68464 157.178531-155.043383-157.178531h118.619338z" fill="#9CCD2A" p-id="6209"></path><path d="M159.42439 159.440574h313.139237v313.139237h-313.155052z" fill="#9CCD2A" p-id="6210"></path><path d="M539.654725 159.440574h313.155052v313.139237h-313.155052z" fill="#932279" p-id="6211"></path><path d="M539.654725 539.670908h313.155052v313.155053h-313.155052z" fill="#EFA724" p-id="6212"></path><path d="M159.42439 539.670908h313.139237v313.155053h-313.155052z" fill="#262577" p-id="6213"></path></svg>